<?xml version="1.0" encoding="utf-8"?>
<!-- Generator: Adobe Illustrator 28.2.0, SVG Export Plug-In . SVG Version: 6.00 Build 0)  -->
<svg version="1.1" id="Layer_1" xmlns="http://www.w3.org/2000/svg" xmlns:xlink="http://www.w3.org/1999/xlink" x="0px" y="0px"
	 viewBox="0 0 128 128" style="enable-background:new 0 0 128 128;" xml:space="preserve">
<style type="text/css">
	.st0{fill:#E0BB03;}
</style>
<path class="st0" d="M77.2,90.8c1.2-1.9,2.5-3.8,3.5-5.8l-16.9-18c-1.5-0.2-3.1-0.4-4.6-0.5c-0.9-0.1-1.8-0.2-3-0.3
	c0.6-0.5,1-0.9,1.3-1.2c0.8-0.7,1.6-1.5,2.4-2.2L45,47c-4,4.5-8,9-12,13.5c-1.5,1.7-2.8,3.5-3.7,5.6c-2.3,5.9-1,11.7,3.7,15.6
	c1.8,1.4,3.8,2.3,5.9,2.6c4.4,0.6,8.9,0.2,13.3,0.1c1,0,1.9-0.1,2.9-0.2c2.9-0.2,5.7-0.5,8.6-0.7c0.3,0,0.6-0.1,0.9,0.2
	c0.1,0.3-0.1,0.6-0.3,0.8c-1.8,2.4-3.1,5.1-4.4,7.8c-2.5,5.2-4.7,10.6-7.4,15.7c-0.5,1-0.9,2-1.2,3.1c-0.7,3,0.9,5.2,4,5.2h18.2
	c0.4,0,0.8,0,1.2-0.2c1.2-0.4,1.6-1,1.6-2.3c0-1.4-1.1-2-2.2-2.6c-2.3-1.4-4.7-2.6-7.1-4c-1.2-0.7-1.2-0.7-0.4-1.7
	C70.3,100.7,73.9,95.8,77.2,90.8z M42,79.8l-0.4,0.7c-5-3.3-6.7-7.7-2.2-14.3l-0.7-1.8l0.8-0.3l0.6,1.7l1.8-1.1l0.4,0.7l-2.2,1.6
	C36.2,71.8,37.5,76,42,79.8z M93,72.7c-0.2-2.7-1.7-4.7-3.7-6.3c-2-1.7-4.1-3.3-6.1-5c-0.3-0.3-0.6-0.5-0.8-0.9
	c-1.8-4.6-4.1-8.9-6.2-13.3c-1.3-2.6-2.3-5.5-4-7.9c-4.1-5.9-11.8-7.1-17.5-2.8c-1.3,1-2.3,2.1-3.3,3.3L51,40.2l9.1,10
	c0-0.1,0.3-0.3,0.4-0.4c0.7-0.6,1,0.1,1.4,0.5c1.1,1.4,2.2,2.9,3.3,4.3c0.9,1.2,1.8,2.4,2.7,3.5c1.5,1.9,2.9,3.8,4.3,5.7
	c1.6,2.2,3.6,3.8,5.8,5.1c0.6,0.4,1.3,0.7,1.9,1.1c2.6,1.4,4.3,3.3,4.9,6.1c0,0.2,0.1,0.4,0.1,0.6c0.2,1.6,1.3,2.4,2.7,2.4
	c0.2,0,0.4,0,0.6,0C91.7,78.7,93.2,75.6,93,72.7z M71.2,14.6c7-3.7,14.9-0.1,16.5,7.5c1.4,6.6-3.2,12.4-9.4,13.2
	c-6,0.7-11.6-3.3-12.4-9.5C65.2,21.1,67,17.3,71.2,14.6z M125.9,30.7c0-2.4-0.2-4.7-0.7-7.1c-2.7-11.4-12.7-19.9-24.6-20
	c-24.4-0.2-48.7,0-73.1,0c-1.5,0-3.1,0.2-4.6,0.5C16.2,5.4,10.8,9,6.8,14.6C3.7,18.9,2,23.8,2,29.2c0,23.3,0,46.6,0,69.9
	c0,1.3,0.1,2.7,0.4,4c2.2,12,13.3,21.3,25.5,21.3h71c1.7,0,3.3-0.1,5-0.4c5.8-0.9,10.8-3.5,14.9-7.8c4.9-5.2,7.2-11.5,7.2-18.6
	C125.9,75.3,125.9,53,125.9,30.7z M104.4,120c-1.3,0.3-2.7,0.5-4.1,0.5H80.8c-17.7,0-35.3,0.1-52.8,0c-8.2-0.1-14.5-4-18.9-11
	c-2.3-3.6-3.2-7.7-3.2-11.9c0-22.4-0.1-44.7,0-67.1c0-7.3,2.6-13.3,7.9-17.7l31.8,33.9l14.9,15.9l4,4.3l16.9,18l30.2,32.2
	C109.4,118.4,107,119.4,104.4,120z M122,97.9c0,5.9-2,11.6-5.8,15.7L21.1,7.6c3.2,0,3.2,0,6.7,0c24.2,0,48.3-0.1,72.5,0
	c8.1,0,14.2,3.9,18.5,10.7c2.3,3.7,3.3,7.7,3.3,12.1C122,52.9,122,75.4,122,97.9z"/>
</svg>
